<?xml version="1.0" encoding="UTF-8" standalone="no"?>
<!-- Created with Inkscape (http://www.inkscape.org/) -->

<svg
   xmlns:dc="http://purl.org/dc/elements/1.1/"
   xmlns:cc="http://creativecommons.org/ns#"
   xmlns:rdf="http://www.w3.org/1999/02/22-rdf-syntax-ns#"
   xmlns:svg="http://www.w3.org/2000/svg"
   xmlns="http://www.w3.org/2000/svg"
   xmlns:xlink="http://www.w3.org/1999/xlink"
   xmlns:sodipodi="http://sodipodi.sourceforge.net/DTD/sodipodi-0.dtd"
   xmlns:inkscape="http://www.inkscape.org/namespaces/inkscape"
   id="svg3039"
   version="1.1"
   inkscape:version="0.48.4 r9939"
   width="360"
   height="264.60001"
   sodipodi:docname="treadmill.svg"
   inkscape:export-filename="/home/moorepants/Manuscripts/perturbed-walking-data/figures/treadmill.png"
   inkscape:export-xdpi="300"
   inkscape:export-ydpi="300">
  <sodipodi:namedview
     pagecolor="#ffffff"
     bordercolor="#666666"
     borderopacity="1"
     objecttolerance="10"
     gridtolerance="10"
     guidetolerance="10"
     inkscape:pageopacity="0"
     inkscape:pageshadow="2"
     inkscape:window-width="1366"
     inkscape:window-height="744"
     id="namedview3041"
     showgrid="false"
     fit-margin-top="0"
     fit-margin-left="0"
     fit-margin-right="0"
     fit-margin-bottom="0"
     showguides="true"
     inkscape:guide-bbox="true"
     inkscape:zoom="2.1352985"
     inkscape:cx="180"
     inkscape:cy="132.3"
     inkscape:window-x="0"
     inkscape:window-y="24"
     inkscape:window-maximized="1"
     inkscape:current-layer="svg3039"
     units="in" />
  <metadata
     id="metadata3045">
    <rdf:RDF>
      <cc:Work
         rdf:about="">
        <dc:format>image/svg+xml</dc:format>
        <dc:type
           rdf:resource="http://purl.org/dc/dcmitype/StillImage" />
        <dc:title />
      </cc:Work>
    </rdf:RDF>
  </metadata>
  <defs
     id="defs3043">
    <marker
       style="overflow:visible"
       id="Arrow1Sstart"
       refX="0"
       refY="0"
       orient="auto"
       inkscape:stockid="Arrow1Sstart">
      <path
         inkscape:connector-curvature="0"
         transform="matrix(0.2,0,0,0.2,1.2,0)"
         style="fill-rule:evenodd;stroke:#000000;stroke-width:1pt"
         d="M 0,0 5,-5 -12.5,0 5,5 0,0 z"
         id="path3964" />
    </marker>
    <marker
       style="overflow:visible"
       id="Arrow1Send"
       refX="0"
       refY="0"
       orient="auto"
       inkscape:stockid="Arrow1Send">
      <path
         inkscape:connector-curvature="0"
         transform="matrix(-0.2,0,0,-0.2,-1.2,0)"
         style="fill-rule:evenodd;stroke:#000000;stroke-width:1pt"
         d="M 0,0 5,-5 -12.5,0 5,5 0,0 z"
         id="path3967" />
    </marker>
    <marker
       style="overflow:visible"
       id="Arrow1Mstart"
       refX="0"
       refY="0"
       orient="auto"
       inkscape:stockid="Arrow1Mstart">
      <path
         inkscape:connector-curvature="0"
         transform="matrix(0.4,0,0,0.4,4,0)"
         style="fill-rule:evenodd;stroke:#000000;stroke-width:1pt"
         d="M 0,0 5,-5 -12.5,0 5,5 0,0 z"
         id="path3958" />
    </marker>
    <marker
       style="overflow:visible"
       id="Arrow1SendU"
       refX="0"
       refY="0"
       orient="auto"
       inkscape:stockid="Arrow1SendU">
      <path
         inkscape:connector-curvature="0"
         transform="matrix(-0.2,0,0,-0.2,-1.2,0)"
         style="fill:#ff6600;fill-rule:evenodd;stroke:#ff6600;stroke-width:1pt"
         d="M 0,0 5,-5 -12.5,0 5,5 0,0 z"
         id="path5524" />
    </marker>
    <marker
       style="overflow:visible"
       id="Arrow1SstartZ"
       refX="0"
       refY="0"
       orient="auto"
       inkscape:stockid="Arrow1SstartZ">
      <path
         inkscape:connector-curvature="0"
         transform="matrix(0.2,0,0,0.2,1.2,0)"
         style="fill:#ff6600;fill-rule:evenodd;stroke:#ff6600;stroke-width:1pt"
         d="M 0,0 5,-5 -12.5,0 5,5 0,0 z"
         id="path5594" />
    </marker>
    <marker
       style="overflow:visible"
       id="Arrow1Sendf"
       refX="0"
       refY="0"
       orient="auto"
       inkscape:stockid="Arrow1Sendf">
      <path
         inkscape:connector-curvature="0"
         transform="matrix(-0.2,0,0,-0.2,-1.2,0)"
         style="fill:#ff6600;fill-rule:evenodd;stroke:#ff6600;stroke-width:1pt"
         d="M 0,0 5,-5 -12.5,0 5,5 0,0 z"
         id="path5667" />
    </marker>
    <marker
       style="overflow:visible"
       id="Arrow1Sendf-7"
       refX="0"
       refY="0"
       orient="auto"
       inkscape:stockid="Arrow1Sendf">
      <path
         inkscape:connector-curvature="0"
         transform="matrix(-0.2,0,0,-0.2,-1.2,0)"
         style="fill:#ff6600;fill-rule:evenodd;stroke:#ff6600;stroke-width:1pt"
         d="M 0,0 5,-5 -12.5,0 5,5 0,0 z"
         id="path5667-0" />
    </marker>
    <marker
       style="overflow:visible"
       id="Arrow1Sstart6"
       refX="0"
       refY="0"
       orient="auto"
       inkscape:stockid="Arrow1Sstart6">
      <path
         inkscape:connector-curvature="0"
         transform="matrix(0.2,0,0,0.2,1.2,0)"
         style="fill:#ff6600;fill-rule:evenodd;stroke:#ff6600;stroke-width:1pt"
         d="M 0,0 5,-5 -12.5,0 5,5 0,0 z"
         id="path6158" />
    </marker>
    <marker
       style="overflow:visible"
       id="Arrow1Sendf-6"
       refX="0"
       refY="0"
       orient="auto"
       inkscape:stockid="Arrow1Sendf">
      <path
         inkscape:connector-curvature="0"
         transform="matrix(-0.2,0,0,-0.2,-1.2,0)"
         style="fill:#ff6600;fill-rule:evenodd;stroke:#ff6600;stroke-width:1pt"
         d="M 0,0 5,-5 -12.5,0 5,5 0,0 z"
         id="path5667-5" />
    </marker>
    <marker
       style="overflow:visible"
       id="Arrow1SstartM"
       refX="0"
       refY="0"
       orient="auto"
       inkscape:stockid="Arrow1SstartM">
      <path
         inkscape:connector-curvature="0"
         transform="matrix(0.2,0,0,0.2,1.2,0)"
         style="stroke:#ff6600;stroke-width:1pt;fill:#ff6600;fill-rule:evenodd"
         d="M 0,0 5,-5 -12.5,0 5,5 0,0 z"
         id="path6700" />
    </marker>
  </defs>
  <image
     inkscape:export-ydpi="300"
     inkscape:export-xdpi="300"
     style="fill:#ff6600"
     y="0"
     x="0"
     id="image3047"
     xlink:href="file:///home/moorepants/Manuscripts/perturbed-walking-data/figures/treadmill-background.jpg"
     height="264.60001"
     width="360" />
  <path
     transform="matrix(0.32010978,0,0,0.32722332,104.86542,5.3831756)"
     d="m 422.83988,430.59293 a 25.636324,25.636324 0 1 1 -51.27265,0 25.636324,25.636324 0 1 1 51.27265,0 z"
     sodipodi:ry="25.636324"
     sodipodi:rx="25.636324"
     sodipodi:cy="430.59293"
     sodipodi:cx="397.20355"
     id="path3049"
     style="opacity:0.5;fill:none;stroke:#ff6600;stroke-width:3.70774317;stroke-miterlimit:4;stroke-opacity:1;stroke-dasharray:none;stroke-dashoffset:0"
     sodipodi:type="arc" />
  <path
     transform="matrix(0.32010978,0,0,0.32722332,135.94624,-60.979824)"
     d="m 421.21433,430.59293 a 24.010775,24.010775 0 1 1 -48.02155,0 24.010775,24.010775 0 1 1 48.02155,0 z"
     sodipodi:ry="24.010775"
     sodipodi:rx="24.010775"
     sodipodi:cy="430.59293"
     sodipodi:cx="397.20355"
     id="path3049-9"
     style="opacity:0.5;fill:none;stroke:#ff6600;stroke-width:3.70774317;stroke-miterlimit:4;stroke-opacity:1;stroke-dasharray:none;stroke-dashoffset:0"
     sodipodi:type="arc" />
  <path
     transform="matrix(0.32010978,0,0,0.32722332,61.343484,-52.644024)"
     d="m 421.03927,430.59293 a 23.835716,23.835716 0 1 1 -47.67143,0 23.835716,23.835716 0 1 1 47.67143,0 z"
     sodipodi:ry="23.835716"
     sodipodi:rx="23.835716"
     sodipodi:cy="430.59293"
     sodipodi:cx="397.20355"
     id="path3049-7"
     style="opacity:0.5;fill:none;stroke:#ff6600;stroke-width:3.70774317;stroke-miterlimit:4;stroke-opacity:1;stroke-dasharray:none;stroke-dashoffset:0"
     sodipodi:type="arc" />
  <path
     transform="matrix(0.32010978,0,0,0.32722332,-45.453168,-56.342424)"
     d="m 422.83988,430.59293 a 25.636324,25.636324 0 1 1 -51.27265,0 25.636324,25.636324 0 1 1 51.27265,0 z"
     sodipodi:ry="25.636324"
     sodipodi:rx="25.636324"
     sodipodi:cy="430.59293"
     sodipodi:cx="397.20355"
     id="path3049-2"
     style="opacity:0.5;fill:none;stroke:#ff6600;stroke-width:3.70774317;stroke-miterlimit:4;stroke-opacity:1;stroke-dasharray:none;stroke-dashoffset:0"
     sodipodi:type="arc" />
  <path
     transform="matrix(0.32010978,0,0,0.32722332,-116.18729,-75.085224)"
     d="m 429.16076,430.59293 a 31.957207,31.957207 0 1 1 -63.91441,0 31.957207,31.957207 0 1 1 63.91441,0 z"
     sodipodi:ry="31.957207"
     sodipodi:rx="31.957207"
     sodipodi:cy="430.59293"
     sodipodi:cx="397.20355"
     id="path3049-6"
     style="opacity:0.5;fill:none;stroke:#ff6600;stroke-width:3.70774317;stroke-miterlimit:4;stroke-opacity:1;stroke-dasharray:none;stroke-dashoffset:0"
     sodipodi:type="arc" />
  <path
     transform="matrix(0.32010978,0,0,0.32722332,-87.081486,-77.156724)"
     d="m 432.59317,430.59293 a 35.389614,35.389614 0 1 1 -70.77923,0 35.389614,35.389614 0 1 1 70.77923,0 z"
     sodipodi:ry="35.389614"
     sodipodi:rx="35.389614"
     sodipodi:cy="430.59293"
     sodipodi:cx="397.20355"
     id="path3049-0"
     style="opacity:0.5;fill:none;stroke:#ff6600;stroke-width:3.70774317;stroke-miterlimit:4;stroke-opacity:1;stroke-dasharray:none;stroke-dashoffset:0"
     sodipodi:type="arc" />
  <path
     transform="matrix(0.32010978,0,0,0.32722332,-16.185256,-97.334424)"
     d="m 461.67173,430.59293 a 64.468178,64.468178 0 1 1 -128.93636,0 64.468178,64.468178 0 1 1 128.93636,0 z"
     sodipodi:ry="64.468178"
     sodipodi:rx="64.468178"
     sodipodi:cy="430.59293"
     sodipodi:cx="397.20355"
     id="path3049-1"
     style="opacity:0.5;fill:none;stroke:#ff6600;stroke-width:3.70774317;stroke-miterlimit:4;stroke-opacity:1;stroke-dasharray:none;stroke-dashoffset:0"
     sodipodi:type="arc" />
  <path
     transform="matrix(0.32010978,0,0,0.32722332,186.99696,-58.027824)"
     d="m 428.52929,430.59293 a 31.325743,31.325743 0 1 1 -62.65148,0 31.325743,31.325743 0 1 1 62.65148,0 z"
     sodipodi:ry="31.325743"
     sodipodi:rx="31.325743"
     sodipodi:cy="430.59293"
     sodipodi:cx="397.20355"
     id="path3049-9-8"
     style="opacity:0.5;fill:none;stroke:#ff6600;stroke-width:3.70774317;stroke-miterlimit:4;stroke-opacity:1;stroke-dasharray:none;stroke-dashoffset:0"
     sodipodi:type="arc" />
  <path
     transform="matrix(0.32010978,0,0,0.32722332,211.63572,-79.304124)"
     d="m 444.10955,430.59293 a 46.906002,46.906002 0 1 1 -93.812,0 46.906002,46.906002 0 1 1 93.812,0 z"
     sodipodi:ry="46.906002"
     sodipodi:rx="46.906002"
     sodipodi:cy="430.59293"
     sodipodi:cx="397.20355"
     id="path3049-9-1"
     style="opacity:0.5;fill:none;stroke:#ff6600;stroke-width:3.70774317;stroke-miterlimit:4;stroke-opacity:1;stroke-dasharray:none;stroke-dashoffset:0"
     sodipodi:type="arc" />
  <path
     transform="matrix(0.32010978,0,0,0.32722332,221.71458,17.275476)"
     d="m 422.83988,430.59293 a 25.636324,25.636324 0 1 1 -51.27265,0 25.636324,25.636324 0 1 1 51.27265,0 z"
     sodipodi:ry="25.636324"
     sodipodi:rx="25.636324"
     sodipodi:cy="430.59293"
     sodipodi:cx="397.20355"
     id="path3049-9-4"
     style="opacity:0.5;fill:none;stroke:#ff6600;stroke-width:3.70774317;stroke-miterlimit:4;stroke-opacity:1;stroke-dasharray:none;stroke-dashoffset:0"
     sodipodi:type="arc" />
  <path
     sodipodi:nodetypes="ccc"
     inkscape:connector-curvature="0"
     id="path3904"
     d="m 177.10546,199.06198 -8.96007,-2.9865 0,-21.2586"
     style="fill:none;stroke:#ff6600;stroke-width:1.20000005;stroke-linecap:butt;stroke-linejoin:miter;stroke-miterlimit:4;stroke-opacity:1;stroke-dasharray:none;marker-start:none;marker-end:url(#Arrow1SendU)" />
  <path
     sodipodi:nodetypes="cc"
     inkscape:connector-curvature="0"
     id="path3906"
     d="m 168.37154,196.07548 -20.89118,5.1897"
     style="fill:none;stroke:#ff6600;stroke-width:1.20000005;stroke-linecap:butt;stroke-linejoin:miter;stroke-miterlimit:4;stroke-opacity:1;stroke-dasharray:none;marker-end:url(#Arrow1Sendf)" />
  <path
     sodipodi:nodetypes="cc"
     inkscape:connector-curvature="0"
     id="path3904-4"
     d="m 187.94044,202.65178 -7.44192,-2.4807"
     style="fill:none;stroke:#ff6600;stroke-width:1.20000005;stroke-linecap:butt;stroke-linejoin:miter;stroke-miterlimit:4;stroke-opacity:1;stroke-dasharray:none;marker-start:url(#Arrow1SstartZ)" />
  <path
     sodipodi:nodetypes="cccc"
     inkscape:connector-curvature="0"
     id="path3928"
     d="m 176.85937,199.60198 0.43111,0.1554 0,-1.251 z"
     style="fill:#ff6600;stroke:none" />
  <path
     sodipodi:nodetypes="cccc"
     inkscape:connector-curvature="0"
     id="path3928-2"
     d="m 180.74286,199.61248 -0.4311,-0.1554 0,1.2792 z"
     style="fill:#ff6600;stroke:none" />
  <text
     sodipodi:linespacing="125%"
     id="text5502"
     y="199.35468"
     x="188.05994"
     style="font-size:12px;font-style:normal;font-weight:bold;line-height:125%;letter-spacing:0px;word-spacing:0px;fill:#ff6600;fill-opacity:1;stroke:none;font-family:Sans;-inkscape-font-specification:Sans Bold"
     xml:space="preserve"><tspan
       y="199.35468"
       x="188.05994"
       id="tspan5504"
       sodipodi:role="line">x</tspan></text>
  <text
     sodipodi:linespacing="125%"
     id="text5506"
     y="176.00623"
     x="157.99594"
     style="font-size:12px;font-style:normal;font-weight:bold;line-height:125%;letter-spacing:0px;word-spacing:0px;fill:#ff6600;fill-opacity:1;stroke:none;font-family:Sans;-inkscape-font-specification:Sans Bold"
     xml:space="preserve"><tspan
       y="176.00623"
       x="157.99594"
       id="tspan5508"
       sodipodi:role="line">y</tspan></text>
  <text
     sodipodi:linespacing="125%"
     id="text5510"
     y="200.31323"
     x="137.84666"
     style="font-size:12px;font-style:normal;font-weight:bold;line-height:125%;letter-spacing:0px;word-spacing:0px;fill:#ff6600;fill-opacity:1;stroke:none;font-family:Sans;-inkscape-font-specification:Sans Bold"
     xml:space="preserve"><tspan
       y="200.31323"
       x="137.84666"
       id="tspan5512"
       sodipodi:role="line">z</tspan></text>
  <text
     sodipodi:linespacing="125%"
     id="text6243"
     y="98.346863"
     x="108.64992"
     style="font-size:12px;font-style:normal;font-weight:normal;line-height:125%;letter-spacing:0px;word-spacing:0px;fill:#000000;fill-opacity:1;stroke:none;font-family:Sans"
     xml:space="preserve"><tspan
       y="98.346863"
       x="108.64992"
       id="tspan6245"
       sodipodi:role="line">-</tspan></text>
  <text
     sodipodi:linespacing="125%"
     id="text6247"
     y="125.9777"
     x="257.1069"
     style="font-size:8px;font-style:normal;font-weight:normal;line-height:125%;letter-spacing:0px;word-spacing:0px;fill:#000000;fill-opacity:1;stroke:none;font-family:Sans"
     xml:space="preserve"><tspan
       y="125.9777"
       x="257.1069"
       id="tspan6249"
       sodipodi:role="line">Projection Screen</tspan></text>
  <text
     sodipodi:linespacing="125%"
     id="text6251"
     y="59.476463"
     x="178.89771"
     style="font-size:8px;font-style:normal;font-weight:normal;line-height:125%;letter-spacing:0px;word-spacing:0px;fill:#000000;fill-opacity:1;stroke:none;font-family:Sans"
     xml:space="preserve"><tspan
       y="59.476463"
       x="178.89771"
       id="tspan6253"
       sodipodi:role="line">Safety Rope</tspan></text>
  <path
     inkscape:connector-curvature="0"
     id="path6255"
     d="m 171.87292,65.096285 6.08815,-7.024779"
     style="fill:none;stroke:#000000;stroke-width:1px;stroke-linecap:butt;stroke-linejoin:miter;stroke-opacity:1" />
</svg>
